<svg xmlns="http://www.w3.org/2000/svg" width="648" height="460" viewBox="0 0 648 460"><g transform="translate(-636 -183)"><g transform="translate(636 183)"><rect width="648" height="460" fill="#fff"/><g transform="translate(99.657 28.686)"><g transform="translate(189.503 262.129) rotate(180)"><path d="M31.323,214.237q0,.094,0,.186a17.592,17.592,0,1,0,35.173,0c0-.032,0-.064,0-.1h0a31.037,31.037,0,0,1,6.752-19.645q8.7-10.933,8.7-20.067a27.858,27.858,0,0,0-1.958-9.5h0a31.037,31.037,0,0,1,2.764-27.13Q90.1,126.168,90.1,116.916q0-5.948-3.174-13.91h0a31.036,31.036,0,0,1,2.2-27.428q8.692-14.529,8.692-25.423C97.815,22.455,75.918,0,48.907,0S0,22.455,0,50.155Q0,61.049,8.692,75.578h0a31.036,31.036,0,0,1,2.2,27.428q-3.174,7.962-3.174,13.91,0,9.347,7.492,21.262h0a31.036,31.036,0,0,1,2.9,27.105,27.756,27.756,0,0,0-1.892,9.332q0,9.02,8.5,19.86h0A31.037,31.037,0,0,1,31.323,214.237Z" transform="translate(0 29.67)" fill="#75c190"/><path d="M18.944,110.513V135.8L1.186,159a.516.516,0,0,0,.819.628l17.864-23.333a.514.514,0,0,0,.107-.314V111.86l16.7,21.817a.516.516,0,1,0,.82-.627L19.976,110.163v-2.381a.516.516,0,0,0-.235-.433V84.931l.129-.168a.516.516,0,0,0,.107-.314V65.617l16.7,21.817a.516.516,0,0,0,.82-.627L19.976,63.919V56.253a.515.515,0,0,0-.235-.433V42.3a.515.515,0,0,0,.078-.273V.516a.516.516,0,1,0-1.032,0v34.8a.51.51,0,0,0-.078.273V41.9L.147,60.933a.516.516,0,1,0,.739.72L18.709,43.376V63.787a.516.516,0,0,0,.106.314l.129.168V81.4a.516.516,0,0,0-.235.433v2.746L1.186,107.468a.516.516,0,1,0,.819.627l16.7-21.817v23.752a.516.516,0,0,0,.106.314Z" transform="translate(30.105)" fill="#226038"/></g><g transform="translate(91.544 281.301) rotate(180)"><path d="M45.772,0C71.051,0,91.544,21.016,91.544,46.939s-20.493,163.21-45.772,163.21S0,72.864,0,46.939,20.493,0,45.772,0Z" transform="translate(0 26.422)" fill="#43d477"/><path d="M18.944,87.984v20L1.186,131.183a.516.516,0,1,0,.819.627L19.87,108.477a.517.517,0,0,0,.106-.314V89.331l16.7,21.817a.516.516,0,1,0,.819-.627L19.976,87.634V79.968a.516.516,0,0,0-.235-.433V65.31L36.679,87.434a.516.516,0,1,0,.819-.627L19.74,63.612V42.3a.515.515,0,0,0,.078-.273V.516a.516.516,0,1,0-1.032,0v34.8a.514.514,0,0,0-.078.273V41.9L.147,60.933a.516.516,0,1,0,.739.72L18.709,43.376V87.5a.516.516,0,0,0,.106.313Z" transform="translate(26.97)" fill="#226038"/></g><g transform="translate(464.885 294.795) rotate(180)"><path d="M45.772,0C71.051,0,91.544,21.016,91.544,46.939s-20.493,163.21-45.772,163.21S0,72.864,0,46.939,20.493,0,45.772,0Z" transform="translate(0 26.422)" fill="#3ec56e"/><path d="M18.944,87.984v20L1.186,131.183a.516.516,0,1,0,.819.627L19.87,108.477a.517.517,0,0,0,.106-.314V89.331l16.7,21.817a.516.516,0,1,0,.819-.627L19.976,87.634V79.968a.516.516,0,0,0-.235-.433V65.31L36.679,87.434a.516.516,0,1,0,.819-.627L19.74,63.612V42.3a.515.515,0,0,0,.078-.273V.516a.516.516,0,1,0-1.032,0v34.8a.514.514,0,0,0-.078.273V41.9L.147,60.933a.516.516,0,1,0,.739.72L18.709,43.376V87.5a.516.516,0,0,0,.106.313Z" transform="translate(26.97)" fill="#226038"/></g></g><g transform="translate(404.713 267.264)"><path d="M118.985,116.748C102.994,119,95.767,54.973,93.243,37.014S101.636,2.676,117.627.429s31,10.489,33.523,28.447S134.975,114.5,118.985,116.748Z" transform="translate(-51.437 -0.172)" fill="#8fd9aa"/><path d="M157,165.769V71.984" transform="translate(-86.716 -39.682)" fill="none" stroke="#226038" stroke-linecap="round" stroke-linejoin="round" stroke-width="2" fill-rule="evenodd"/><path d="M160.165,184.5c-12.005-7.214,19.454-56.618,27.945-70.75s25.107-19.74,37.112-12.526,14.854,24.517,6.363,38.649S172.17,191.718,160.165,184.5Z" transform="translate(-86.972 -54.04)" fill="#57c27e"/><path d="M164.9,240.12c-4.222-9.055,49.3-32.816,64.244-39.784s30.477-5.275,34.7,3.779-4.467,22.043-19.409,29.011S169.124,249.174,164.9,240.12Z" transform="translate(-90.932 -107.938)" fill="#8fd9aa"/><path d="M170,270.251l57.8-17.767" transform="translate(-93.869 -138.992)" fill="none" stroke="#226038" stroke-linecap="round" stroke-linejoin="round" stroke-width="2" fill-rule="evenodd"/><path d="M168,219.561l46.33-53.077" transform="translate(-92.768 -91.675)" fill="none" stroke="#226038" stroke-linecap="round" stroke-linejoin="round" stroke-width="2" fill-rule="evenodd"/><path d="M75.639,193.08c-6.686,7.425-49.471-32.56-61.723-43.591S-2.849,123.5,3.836,116.071s22.037-4.5,34.289,6.531S82.324,185.656,75.639,193.08Z" transform="translate(-0.744 -61.68)" fill="#57c27e"/><path d="M117.707,227.291,88.694,190.632" transform="translate(-49.133 -104.961)" fill="none" stroke="#226038" stroke-linecap="round" stroke-linejoin="round" stroke-width="2" fill-rule="evenodd"/><path d="M78.781,250.812c-1.724,6.433-44.459-5.767-56.545-9.005S1.75,230.728,3.474,224.3s12.918-9.022,25-5.784S80.5,244.379,78.781,250.812Z" transform="translate(-2.122 -119.532)" fill="#cbeffc"/><path d="M109.257,270.352,60,253.484" transform="translate(-33.348 -139.542)" fill="none" stroke="#22537f" stroke-linecap="round" stroke-linejoin="round" stroke-width="2" fill-rule="evenodd"/></g><g transform="translate(170.712 67.021)"><g transform="translate(0 38.922)"><path d="M63.712,301.823a2.551,2.551,0,0,1-3.06,2.442,4.6,4.6,0,0,1-3.591-3.6L35.55,193.553a15.134,15.134,0,0,1,13.828-18.08q.7-.047,1.411-.031a15.787,15.787,0,0,1,15.425,16.142Z" transform="translate(-19.631 -96.762)" fill="#ffc55f" fill-rule="evenodd"/><path d="M25.391,104.352C14.463,108.321-4,90.667,1.535,70.75S11.977,38.891,6.756,32.706s13.656-3.156,13.656,8.712S21.849,11.775,36.319.529q3.789,20.652,13.987,32.177c10.2,11.525,8.06,20.624,3.822,31.61q7.358,1.45,6.5-3.639c6.531,6.18.175,32.191-15.016,39.344S36.319,100.383,25.391,104.352Z" transform="translate(-0.522 -0.529)" fill="#f95b03"/><path d="M66.8,195.775q-.746.429-1.523.8c-15.191,7.153-9.292.362-20.22,4.331a11.4,11.4,0,0,1-7.416-.124l-1.18-7.309q-.087-.541-.135-1.088a15.055,15.055,0,0,1,13.686-16.31q.428-.037.858-.051a15.309,15.309,0,0,1,15.778,14.825Z" transform="translate(-20.189 -97.078)" fill="#ec961f" fill-rule="evenodd"/><path d="M59.143,194.939l5.013-9.795a1.349,1.349,0,1,1,2.4,1.229l-5.013,9.795A1.349,1.349,0,0,1,59.143,194.939Z" transform="translate(-32.682 -101.691)" fill="#1c2229"/><path d="M70.184,200.453l5.013-9.795a1.349,1.349,0,0,1,2.4,1.229l-5.013,9.8A1.349,1.349,0,0,1,70.184,200.453Z" transform="translate(-38.757 -104.724)" fill="#1c2229"/></g><g transform="translate(14.197 132.851)"><path d="M3.1,15.167c1.664,7.205,26.119,1.621,27.843-.326C33.824,11.591,26.576,2.774,22.4.646,17.177-2.015,7.022,4.177,2.782,7.7,2.438,7.984.085,9.409,0,9.959c-.075.494,2.345.659,2.409,1.266A30.773,30.773,0,0,0,3.1,15.167Z" transform="translate(9.766 94.635) rotate(-108)" fill="#ffaa83"/><path d="M220.946,204.513l-5.214-8.326Z" transform="translate(-118.732 -108.097)" fill="none" stroke="#ed5738" stroke-linecap="round" stroke-linejoin="round" stroke-width="6" fill-rule="evenodd"/><path d="M53.329,70.341c15.781,4.167,39.319,10.765,58.995,18.117-8.679-27.389-17-64.475-11.041-76.963,8.617-18.049,21-11.111,27.534-.684C135.2,21,157.636,97.076,150.636,117.42c2.705,12.244-4.791,17.978-20.554,14.753q-16.725-3.423-80.238-40.93a6.315,6.315,0,0,1-5.692-2.431,9.382,9.382,0,0,1-.8-1.417q-6.1-3.63-12.594-7.553A36.014,36.014,0,0,1,30,71.414l-.061-.026c-6.7-2.952,4.053-15.462,8.212-13.932,2.763,1.017,6.34.46,10.793,4.469C50.889,63.677,52.388,66.773,53.329,70.341Z" transform="translate(-15.329 -0.349)" fill="#ffaa83"/><path d="M17.742,3.5a37.59,37.59,0,0,1,3.4,5.4A1.349,1.349,0,1,0,23.5,7.607a39.632,39.632,0,0,0-3.68-5.822A6.063,6.063,0,0,0,18.242.332a2.007,2.007,0,0,0-2.357.1C13.808,2.128,12.591,5.2,12.707,9.768c.032,1.276.088,2.385.169,3.334a11.86,11.86,0,0,0-7.536-1.383,10.221,10.221,0,0,0-4,1.223A2.552,2.552,0,0,0,.23,16.232a1.349,1.349,0,0,0,2.513-.981c.02-.014.042-.03.067-.047a8.2,8.2,0,0,1,2.92-.814,9.952,9.952,0,0,1,8.162,2.69,1.349,1.349,0,0,0,2.127-1.533A22.375,22.375,0,0,1,15.405,9.7c-.086-3.4.631-5.575,1.784-6.8A6.45,6.45,0,0,1,17.742,3.5ZM2.662,15.32h0Z" transform="translate(14.031 85.363) rotate(-108)" fill="#ed5738"/></g><g transform="translate(86.941 108.781)"><path d="M5.789,12.52c16.446-18.93,135.214-14.3,144.72,0S147.5,130.588,126.878,146.1s-71.723,22.281-93.829,0S-10.657,31.45,5.789,12.52Z" transform="translate(19.875 0) rotate(6)" fill="#ffaa83"/><path d="M25.173,105.133c-10.554.462-19.817-3.494-21.261-13.437C1.108,72.391,5.905,38.722,19.88,24.383c5.02-5.151,9.444-7.085,13.179-6.893C40.7,14.852,52.566,13.822,66.2,13.977,77.31,14.1,53.668,87.241,92.608,91.334c49.3,5.181,27.264-72.311,35.637-70.669,21.831,4.281,39.206,10.049,42.1,15.577,6.537,12.495-8,83.458-25.673,115.772-3.844,7.031,11.68,37.714,7.725,40.085-19.3,11.569-31.713,9.629-66.7,10.6s-55.2-16.225-54.638-22.992c.9-10.9,2.712-27.064.551-40.867C30.517,131.859,27.816,119.439,25.173,105.133Z" transform="translate(-2.093 -8.058)" fill="#1f3b64"/><path d="M.033,7.8a1.889,1.889,0,0,1,3.713-.7C8.722,33.448,18.429,46.26,32.725,46.26c10.107,0,17.851-5.084,22.936-14.194,4.565-8.179,6.658-19.21,5.952-30.054a1.889,1.889,0,0,1,3.771-.245C66.133,13.3,63.9,25.049,58.96,33.907,53.24,44.157,44.279,50.039,32.725,50.039,16.156,50.039,5.305,35.718.033,7.8Z" transform="translate(62.766 31.726) rotate(6)" fill="#fff"/><path d="M22.685,2.654A44.368,44.368,0,0,1,1.068,3.08,1.349,1.349,0,0,1,1.631.441Q13.121,2.892,21.949,0C23.316,1.335,24.637,1.527,22.685,2.654Z" transform="translate(2.1 79.385) rotate(30)" fill="#fff"/><path d="M45.424,186.288a1.349,1.349,0,0,1-2.579.8c-2.949-9.557-4.178-16.439-3.657-20.755a1.349,1.349,0,1,1,2.679.324C41.4,170.489,42.579,177.07,45.424,186.288Z" transform="translate(-21.859 -91.235)" fill="#818894"/></g><g transform="translate(115.242 0)"><g transform="translate(9.721 61.584)"><path d="M15.254,67.228C10.2,66.823,0,61.311,0,55.175,0,48.8,3.9,43.63,8.7,43.63q.281,0,.557.023-.107-1.528-.108-2.966C9.153,18.216,27.728,0,50.641,0S92.129,18.216,92.129,40.688,74.98,103.906,52.067,103.906C36.836,103.906,22.892,85.9,15.254,67.228Z" transform="translate(23.374 0) rotate(13)" fill="#ffaa83"/><path d="M3.551.318l8.992,5.192a2.367,2.367,0,0,1-2.367,4.1L1.184,4.417A2.367,2.367,0,1,1,3.551.318Z" transform="translate(43.268 42.359) rotate(13)" fill="#253238" fill-rule="evenodd"/><path d="M1.044,6.211,9.652.405A2.367,2.367,0,1,1,12.3,4.329L3.691,10.136A2.367,2.367,0,0,1,1.044,6.211Z" transform="translate(80.952 43.319) rotate(13)" fill="#22537f" fill-rule="evenodd"/><path d="M6.18,0Q3.818,14.2,8.07,17.041t7.559,2.841q-3.779,5.207-7.559,6.627C4.29,27.929-2.457,26.31.917,23.1" transform="translate(61.651 53.194) rotate(13)" fill="none" stroke="#ed5738" stroke-linecap="round" stroke-linejoin="round" stroke-width="6" fill-rule="evenodd"/><path d="M4.455.178A1.349,1.349,0,1,1,5.793,2.522C2.053,4.657,1.748,6.587,4.643,9.372a1.349,1.349,0,0,1-1.871,1.945C-1.454,7.251-.813,3.185,4.455.178Z" transform="translate(16.334 47.56) rotate(13)" fill="#ed5738"/><path d="M1.629,3.213A1.349,1.349,0,1,1,1.07.573c9.449-2,17.089,1.244,22.669,9.6a1.349,1.349,0,0,1-2.245,1.5C16.52,4.221,9.983,1.445,1.629,3.213Z" transform="translate(44.746 86.086) rotate(13)" fill="#ed5738"/><path d="M.2,3.448A1.349,1.349,0,1,1,2.5,2.049C8.86,12.536,16.763,17.7,26.306,17.7c9.51,0,17.385-5.6,23.7-17A1.349,1.349,0,1,1,52.368,2C45.611,14.2,36.9,20.4,26.306,20.4,15.745,20.4,7.011,14.692.2,3.448Z" transform="translate(30.029 88.87) rotate(13)" fill="#ed5738"/><path d="M.8,7.81,7.318,4.916.9,2.621A1.349,1.349,0,1,1,1.8.079L11.4,3.51a1.349,1.349,0,0,1,.094,2.5L1.9,10.276A1.349,1.349,0,1,1,.8,7.81Z" transform="translate(42.132 51.418) rotate(13)" fill="#1c2229"/><circle cx="2.924" cy="2.924" r="2.924" transform="translate(80.106 62.115) rotate(13)" fill="#1c2229"/></g><path d="M7.74,77.785,1.585,76.779a1.889,1.889,0,1,1,.61-3.729l2.325.38L2.342,72.182A1.889,1.889,0,0,1,4.222,68.9l3.505,2.01q.113-.669.279-1.318C11.5,55.959,14.88,51.82,28.313,54.288,38.261,1.351,71.83-.41,86.49,22.688,95.313,4.25,106.7,1.8,116.338,5.361l1.183-4.007a1.889,1.889,0,0,1,3.624,1.07l-1.332,4.511a34.905,34.905,0,0,1,5.664,3.831l8.213-9.013A1.889,1.889,0,1,1,136.482,4.3L128.276,13.3l.116.116,6.654-4.059a1.889,1.889,0,1,1,1.967,3.226l-6.038,3.683a32.382,32.382,0,0,1,3.444,5.029c31.2-12.417,50.569,10.973,14.859,36.067,7.089,17.911-14.859,28.835-24.3,25.9,3.253,16.327-8.318,28.236-15.379,30.107,1-2.905,2.012-11.189,2.012-16.369-4.579-8.515-7.059-10.707-8.654-21.722C96.855,81.737,83.85,86.067,72.039,90.8c-5.257,2.107-23.628,4.159-30.873-2.317,0,8.568,1.915,17.071-1.134,29.9-4.276,2.589-5.589-12.825-9.047-14.988-4.07-2.546-7.53,2.355-9.539,3.681C19.5,104.247,9.52,90.25,7.74,77.785Z" transform="translate(26.695 0) rotate(13)" fill="#253238" fill-rule="evenodd"/></g><g transform="translate(180.158 133.566)"><path d="M109.163,40.7c.348,9.706-4.4,61.026-24.188,91.81-4.335,6.745-3.183,10.253-6.412,15.5-12.48,20.277-33.443,24.059-33.443-12.95,0-9.317,7.368-17.432,8.964-25.794,5.465-28.629,18.131-72.979,30.891-81.742C101.463,16.2,108.722,28.4,109.163,40.7Z" transform="translate(-24.844 -13.094)" fill="#ffaa83"/><path d="M121.386,14.006c.373,12.061,2.488,31.892,2.549,49.961s-51.12,31.644-55.063,0S82.428.938,97.39.938,121.006,1.7,121.386,14.006Z" transform="translate(-37.602 -0.938)" fill="#1f3b64"/><path d="M119.834,143.8c-18.813,15.582-36.812,15.881-53.51.823a1.349,1.349,0,0,1,1.807-2c15.67,14.131,32.168,13.856,49.981-.9a1.349,1.349,0,1,1,1.721,2.079Z" transform="translate(-36.265 -78.224)" fill="#fff"/><path d="M76.865,117.124c2.224-9.751,4.6-16.325,7.211-19.8a1.349,1.349,0,1,1,2.159,1.62c-2.32,3.091-4.592,9.377-6.738,18.783a1.349,1.349,0,0,1-2.631-.6Z" transform="translate(-42.291 -53.67)" fill="#1d5ef8"/><path d="M66.852,207.732v-5.539a1.349,1.349,0,1,1,2.7,0v5.539a1.349,1.349,0,1,1-2.7,0Z" transform="translate(-36.8 -110.924)" fill="#ed5738"/><path d="M115.4,222.269c1.747-4.506,1.751-11.608-.059-21.252-2.813-10.635-3.356-17.06-1.354-19.761a1.349,1.349,0,0,1,2.168,1.607c-1.29,1.741-.78,7.741,1.829,17.608,1.9,10.119,1.9,17.692-.068,22.775a1.349,1.349,0,0,1-2.516-.976Z" transform="translate(-62.072 -99.846)" fill="#ed5738"/><path d="M2.947,143.741C.8,141.092,1.5,140.068.641,136.789c-.3-1.129,1.059-2.917.883-4.112-.131-.888-1.494-2.171-1.481-3.072.024-1.6,1.173-3.18,1.481-4.821.27-1.441-1.725-2.607-.883-4.947s3.188-2.594,4.042-3.829c.679-.982-2.837-2.43,0-5.266s11.267-3.9,15.471-1.915c-1.285,8.04,5.88,8.5,9.911,6.082,1.018-.609.695-5.552,2.257-5.552,1.313,0,4.736,0,6.557,1.385,10.711,8.142,14.145,13.955,12.856,30.588-.643,8.3-23.781,9.77-31.581,8.142C15.659,148.534,6.054,147.571,2.947,143.741Z" transform="translate(-0.043 -59.737)" fill="#ffaa83"/></g><g transform="translate(176.315 106.156)"><path d="M0,0H11.245l.107,17.754H.107Z" transform="matrix(0.978, 0.208, -0.208, 0.978, 25.862, 68.254)" fill="#1e5b89"/><circle cx="36.21" cy="36.21" r="36.21" fill="#4c91fc"/><circle cx="32.161" cy="32.161" r="32.161" transform="translate(4.048 4.498)" fill="#fff"/><path d="M71.675,31.972c-2.649,12.453-10.6,28.616-20.966,40.91a32.165,32.165,0,1,1,20.966-40.91Z" transform="translate(-4.952 -5.502)" fill="#ffaa83"/><g transform="translate(18.892 14.844)"><circle cx="17.543" cy="17.543" r="17.543" fill="#fff"/><circle cx="8.996" cy="8.996" r="8.996" transform="translate(8.996 8.996)" fill="#22537f"/><circle cx="4.498" cy="4.498" r="4.498" transform="translate(13.494 13.494)" fill="#1c2229"/><circle cx="4.273" cy="4.273" r="4.273" transform="translate(19.792 9.896)" fill="#fff"/></g></g></g><g transform="translate(61.925 244.553)"><path d="M554.6,256.365q-11.532-31.024-33.769-31.024c-22.239,0-11.518-32.562-34.58-32.562-15.013,0-15.013,18.124-36.515,6.867-22.169-11.606.824-31.626-41.182-35.469S376.2,199.646,358.9,199.646c-12.457,0-13.259-19.806-23.886-21.415s-12.08,11.531-20.042,9.884c-9.7-2.007-6.04-18.673-29.692-18.673s-15.608,32.194-21.374,35.729-13.178-8.271-21.14,5.731S248.6,231.493,237,231.493q-21.194,0-23.391,24.872,1.561,7.613,29.156,8.519c27.595.906,28.837-6.879,63.077-5.491s40.043,0,89.216,0,40.443,11.041,77.984,7.687,66.309,3.582,87.855,2.2Q578.6,268.139,554.6,256.365Z" transform="translate(-117.827 -90.489)" fill="#67b583"/><g transform="translate(188.767 108.888) rotate(128)"><path d="M18.01,121.187c-1.02,2.335-3.441,3.195-5.407,1.922S1.048,113.2,2.068,110.869s12.261,2.514,14.228,3.787A5.4,5.4,0,0,1,18.01,121.187ZM16.018,106.1c-1.02,2.335-3.441,3.195-5.407,1.922S-.944,98.119.076,95.785,12.336,98.3,14.3,99.572A5.4,5.4,0,0,1,16.018,106.1Zm-.7-14.1a3.533,3.533,0,0,1-5.588.869C7.947,91.242-.413,80.89.894,78.779S12.681,83.6,14.459,85.228A5.566,5.566,0,0,1,15.313,92.005Zm-.972-14.613a3.5,3.5,0,0,1-5.632-.086C7.133,75.389.038,63.722,1.573,61.852s11.121,6.767,12.7,8.684A5.622,5.622,0,0,1,14.341,77.392Zm1.113-14.877a3.521,3.521,0,0,1-5.605-.684c-1.432-2.077-7.665-14.453-6-16.152s10.594,7.921,12.026,10A5.607,5.607,0,0,1,15.454,62.516Zm1.013-14.34c-1.9,1.282-4.315.4-5.4-1.972S5.814,30.236,7.713,28.954s9.158,10.236,10.238,12.608S18.367,46.894,16.467,48.176Zm2.563-13.1c-2.107.64-4.252-.975-4.791-3.605s-1.684-17.08.423-17.719,6.67,12.773,7.208,15.4S21.137,34.437,19.03,35.077Zm5.609-13.1c-2.172.046-3.963-2.114-4-4.825S22.153.046,24.324,0,28.462,14.271,28.5,16.982,26.811,21.928,24.639,21.974ZM30.4,23.083a4.158,4.158,0,0,1,1.32-5.029c1.514-.98,10.17-4.713,10.955-2.916s-6.6,8.444-8.111,9.424A2.809,2.809,0,0,1,30.4,23.083ZM25.138,36.731a4.253,4.253,0,0,1,.881-5.169c1.422-1.167,9.71-5.981,10.645-4.293s-5.836,9.237-7.258,10.4A2.743,2.743,0,0,1,25.138,36.731ZM21.37,50.158a4.239,4.239,0,0,1,.955-5.149c1.438-1.137,9.794-5.774,10.7-4.067s-5.968,9.112-7.407,10.249A2.751,2.751,0,0,1,21.37,50.158ZM18.641,65.332a4.3,4.3,0,0,1,.507-5.243c1.333-1.314,9.244-6.988,10.3-5.406S24.292,64.5,22.96,65.818A2.71,2.71,0,0,1,18.641,65.332Zm-.09,13.911a4.277,4.277,0,0,1,.732-5.2c1.388-1.227,9.532-6.39,10.515-4.743S24.231,78.776,22.843,80A2.727,2.727,0,0,1,18.551,79.243Zm.3,11.6a4.121,4.121,0,0,1,1.464-4.97c1.541-.915,10.3-4.278,11.032-2.448s-6.836,8.159-8.377,9.074A2.837,2.837,0,0,1,18.854,90.842Zm1.154,11.281a4.011,4.011,0,0,1,1.814-4.8c1.6-.748,10.566-3.169,11.165-1.269s-7.394,7.4-8.995,8.151A2.921,2.921,0,0,1,20.007,102.123Zm1.209,14.9a4.176,4.176,0,0,1,1.248-5.056c1.5-1.012,10.1-4.929,10.911-3.148s-6.475,8.583-7.976,9.6A2.8,2.8,0,0,1,21.216,117.023Z" transform="translate(80.234 176.864) rotate(-180)" fill="#57bf7c"/><path d="M9.548,123.035a1.294,1.294,0,0,1-.747,1.523,1.033,1.033,0,0,1-1.251-.909Q-9.7,40.511,12.511.55A.923.923,0,0,1,13.942.216a1.432,1.432,0,0,1,.274,1.742Q-7.449,40.845,9.548,123.035Z" transform="translate(64.49 157.522) rotate(-180)" fill="#226038"/><path d="M12.2,88.935a3.446,3.446,0,0,1-5.541-.467c-1.475-2.01-8-14.073-6.413-15.824s10.68,7.471,12.154,9.481A5.62,5.62,0,0,1,12.2,88.935ZM13.5,74.4c-1.769,1.464-4.2.833-5.434-1.409s-6.325-15.3-4.556-16.766,9.728,9.222,10.961,11.465A5.544,5.544,0,0,1,13.5,74.4ZM16.849,60.1c-1.866,1.269-4.244.381-5.313-1.985S6.322,42.194,8.187,40.925s9.036,10.228,10.1,12.593S18.714,58.829,16.849,60.1Zm3.166-13.8c-2.029.809-4.226-.62-4.907-3.192s-2.643-16.848-.614-17.657,7.28,12.156,7.961,14.727S22.044,45.488,20.015,46.3Zm4.153-14.427c-2.125-.228-3.692-2.6-3.5-5.291S23.6,9.8,25.725,10.031s2.831,14.68,2.639,17.374S26.293,32.1,24.168,31.869Zm7.99-12.089c-1.917-1.147-2.689-4.048-1.722-6.479S38.072-1.07,39.989.077s-1.644,14.949-2.611,17.38S34.075,20.928,32.157,19.781Zm5.914,4.04a3.606,3.606,0,0,1,2.687-4.082c1.684-.254,10.766.024,10.966,2.025s-8.557,4.966-10.241,5.22S38.272,25.821,38.071,23.821Zm-8,13.294a4.045,4.045,0,0,1,1.666-4.833c1.562-.814,10.354-3.618,11-1.763S35.622,38.187,34.06,39A2.836,2.836,0,0,1,30.07,37.114ZM24.376,49.384a4.021,4.021,0,0,1,1.735-4.8c1.573-.78,10.4-3.4,11.019-1.527s-7.218,7.515-8.791,8.295A2.854,2.854,0,0,1,24.376,49.384ZM19.417,63.6a4.152,4.152,0,0,1,1.317-4.992c1.5-.977,10.058-4.712,10.829-2.932s-6.538,8.4-8.036,9.377A2.758,2.758,0,0,1,19.417,63.6ZM17.195,77.2a4.09,4.09,0,0,1,1.528-4.9c1.538-.88,10.245-4.06,10.939-2.232s-6.887,7.968-8.425,8.848A2.8,2.8,0,0,1,17.195,77.2ZM15.7,88.628a3.839,3.839,0,0,1,2.2-4.5c1.639-.539,10.664-1.815,11.089.132s-7.91,6.38-9.549,6.919S16.129,90.575,15.7,88.628Z" transform="translate(51.728 117.4) rotate(-180)" fill="#8fd9aa"/><path d="M2.972,94.861a1.222,1.222,0,0,1-.885,1.39,1.083,1.083,0,0,1-1.117-1.1Q-4.676,34.419,22.569.368a.875.875,0,0,1,1.425,0A1.48,1.48,0,0,1,24,2.14Q-2.561,35.258,2.972,94.861Z" transform="translate(38.684 96.259) rotate(-180)" fill="#226038"/></g><g transform="translate(274.793 92.374)"><path d="M62.4.045c1.44.025,2.579,1.685,2.543,3.707s-1.39,12.71-2.829,12.685S59.7,5.682,59.731,3.66,60.963.019,62.4.045Z" transform="translate(-33.124 -0.044)" fill="#fff"/><path d="M40.46,20.921c1.208-.784,3.08-.045,4.181,1.651s5.955,11.314,4.748,12.1-8.02-7.562-9.121-9.258S39.252,21.705,40.46,20.921Z" transform="translate(-21.99 -11.358)" fill="#fff"/><path d="M27.231,42.865c1.229-1.318,3.725-.987,5.576.739s10.655,11.933,9.426,13.251S30.208,50.1,28.357,48.376,26,44.183,27.231,42.865Z" transform="translate(-14.873 -23.16)" fill="#fff"/><path d="M19.549,66.94c1.265-1.619,4.134-1.492,6.408.285s13.291,12.5,12.026,14.118S23.65,74.866,21.376,73.089,18.284,68.559,19.549,66.94Z" transform="translate(-10.689 -36.225)" fill="#fff"/><path d="M10.653,95.949c1.238-1.981,4.5-2.178,7.278-.439s16.51,12.549,15.272,14.53-16.973-5.619-19.755-7.357S9.415,97.93,10.653,95.949Z" transform="translate(-5.859 -51.916)" fill="#fff"/><path d="M.808,128.1c.933-2.43,4.456-3.338,7.869-2.028s20.731,10.219,19.8,12.649S8.712,136.186,5.3,134.876-.125,130.533.808,128.1Z" transform="translate(-0.58 -69.055)" fill="#fff"/><path d="M77.739,20.921c1.208.784,1.294,2.8.193,4.491s-7.914,10.042-9.121,9.258,3.646-10.4,4.748-12.1S76.532,20.136,77.739,20.921Z" transform="translate(-38.014 -11.358)" fill="#fff"/><path d="M83.989,42.865c1.229,1.318.725,3.785-1.126,5.511s-12.648,9.8-13.877,8.479S76.562,45.329,78.413,43.6,82.76,41.547,83.989,42.865Z" transform="translate(-38.152 -23.16)" fill="#fff"/><path d="M87.587,66.94c1.265,1.619.447,4.372-1.827,6.149s-15.342,9.873-16.607,8.254S78.9,69,81.179,67.225,86.322,65.321,87.587,66.94Z" transform="translate(-38.252 -36.225)" fill="#fff"/><path d="M91.62,95.949c1.238,1.981-.014,5-2.8,6.734s-18.517,9.338-19.755,7.357S81.56,97.248,84.341,95.51,90.382,93.968,91.62,95.949Z" transform="translate(-38.219 -51.916)" fill="#fff"/><path d="M95.562,128.1c.933,2.431-1.078,5.463-4.491,6.773s-22.244,6.278-23.177,3.848,16.385-11.339,19.8-12.649S94.629,125.672,95.562,128.1Z" transform="translate(-37.596 -69.055)" fill="#fff"/><path d="M64.553,44.786a.45.45,0,1,1,.9,0v59.6a.45.45,0,1,1-.9,0Z" transform="translate(-35.777 -24.413)" fill="#fff"/></g><g transform="translate(319.447 119.124)"><path d="M74.335.621c.946.4,1.256,1.8.692,3.132s-4.317,8.037-5.262,7.636S71.038,3.628,71.6,2.3,73.389.22,74.335.621Z" transform="translate(-38.64 -0.513)" fill="#fff"/><path d="M56.922,8.365c1.009-.2,2.05.793,2.325,2.21s.916,9.077-.093,9.273-3.285-7.147-3.56-8.563S55.913,8.561,56.922,8.365Z" transform="translate(-30.934 -4.819)" fill="#fff"/><path d="M42.217,19.485c1.165-.543,2.729.343,3.492,1.979S49.568,32.207,48.4,32.75s-6.151-7.682-6.914-9.319S41.052,20.028,42.217,19.485Z" transform="translate(-22.984 -10.863)" fill="#fff"/><path d="M30.585,33.474c1.27-.733,3.134.118,4.164,1.9S40.2,47.2,38.931,47.93s-7.752-8.116-8.781-9.9S29.315,34.207,30.585,33.474Z" transform="translate(-16.608 -18.503)" fill="#fff"/><path d="M16.811,50.437c1.348-.98,3.557-.239,4.933,1.655s7.568,12.716,6.22,13.7-9.727-8.254-11.1-10.147S15.463,51.417,16.811,50.437Z" transform="translate(-9.085 -27.743)" fill="#fff"/><path d="M1.546,69.32c1.267-1.359,3.84-1.018,5.748.761s10.984,12.3,9.717,13.66S4.614,76.78,2.707,75,.279,70.679,1.546,69.32Z" transform="translate(-0.853 -37.912)" fill="#fff"/><path d="M78.119,20.244c.589.842.109,2.2-1.073,3.023s-7.92,4.529-8.509,3.687,5.193-5.907,6.375-6.735S77.53,19.4,78.119,20.244Z" transform="translate(-38.069 -11.018)" fill="#fff"/><path d="M76.118,37.987c.461,1.2-.532,2.7-2.218,3.345s-10.986,3.1-11.447,1.9,8.093-5.6,9.778-6.247S75.657,36.787,76.118,37.987Z" transform="translate(-34.735 -20.417)" fill="#fff"/><path d="M71.815,55.738c.4,1.41-.873,3.012-2.852,3.58s-12.789,2.431-13.193,1.021,9.75-5.558,11.73-6.125S71.41,54.329,71.815,55.738Z" transform="translate(-31.061 -29.949)" fill="#fff"/><path d="M66.661,77.005c.289,1.641-1.345,3.3-3.65,3.708S48.265,81.941,47.975,80.3s11.683-5.124,13.988-5.531S66.371,75.364,66.661,77.005Z" transform="translate(-26.777 -41.318)" fill="#fff"/><path d="M61.453,100.432c-.032,1.857-2.173,3.326-4.781,3.28s-16.394-1.792-16.362-3.649,13.871-3.122,16.479-3.076S61.485,98.575,61.453,100.432Z" transform="translate(-22.562 -53.592)" fill="#fff"/><path d="M47.638,29.994a.45.45,0,0,1,.834.337L32.541,69.76a.45.45,0,1,1-.834-.337Z" transform="translate(-17.811 -16.578)" fill="#fff"/></g><path d="M356.215,301.26q-6.445-10.248-29.413-10.248c-22.969,0-18.87-12.4-42.69-12.4s-9.507-46.845-67.421-49.323-44.8,27.267-62.667,27.267-27.47-14.575-49.34-13.546-30.692,33.752-39.482,35.6-2.268-6.475-26.371-6.475q-24.1,0-34.027,18.871Q-9.023,301.26,33.511,301.26c10.439,0,39.192-3.329,71.174-4.255,18.049-.523,51,9.435,92.441,9.435,19.566,0,36.332-4.448,74.577-5.18Q309.947,300.528,356.215,301.26Z" transform="translate(-1.078 -126.381)" fill="#43d477"/></g></g></g></svg>